<svg xmlns="http://www.w3.org/2000/svg" width="600" height="689.803" viewBox="0 0 600 689.803"><path d="M288.288 316.028c4.885 1.54 10.306 4.15 16.094 7.663 1.339-1.54 2.71-3.112 4.049-4.718-9.235-1.874-17.031-3.413-24.225-4.283 1.372.468 2.744.903 4.082 1.338zM388.3 207.15C356.412 93.989 354.505 45.773 356.044 27.404v-.067C352.364 10.038 350.456 0 350.456 0c-41.255 124.203-95.527 211.433-145.483 271.36-14.722-2.978-27.738-4.852-37.575-5.388C119.918 263.362 86.224 291 86.224 291c41.825-17.399 77.493-16.328 109.28-8.565C133.369 353.57 79.733 382.48 68.959 388.569c-12.95 7.328-24.058 16.83-30.214 22.586-4.551 4.25-6.692 10.774-4.819 16.696.301.904.636 1.74 1.071 2.476.335.636.736 1.205 1.138 1.707 3.814 4.617 10.606 5.152 16.863 4.383a42.919 42.919 0 0 0 7.127-1.54 47.963 47.963 0 0 0 13.117-6.156c53.468-35.267 102.186-88.434 141.97-140.598 19.54 6.457 37.642 14.655 54.974 21.414a147.442 147.442 0 0 1 15.994-2.744h.033c6.324-.702 12.782-.937 19.14-.468 3.546.268 7.628.937 12.179 1.907a37.67 37.67 0 0 0 1.07-1.338c-29.01-12.916-63.606-23.857-94.022-31.218l-9.034-2.811 4.116-5.621c22.083-26.4 36.94-48.082 46.409-63.039 15.492-24.492 26.533-44.468 26.533-44.468 3.982-7.16 8.131-14.22 12.113-21.347 10.071-18.202 13.484-25.162 15.09-24.627.77.268 1.238 2.209.268 9.202l.167-.335c0 35.535 15.191 96.365 29.11 144.68 15.66-21.514 28.475-41.623 38.947-60.16zm167.902 286.784c-6.826-4.684-13.518-10.272-20.042-16.696h-.034c-4.584-1.405-9.134-3.112-13.518-5.186-8.063-3.815-15.525-8.834-21.682-15.492-26.466-28.608-79.868-92.885-130.025-119.787h-.033a101.638 101.638 0 0 0-5.722-2.877l-.033-.034c-7.997-3.848-15.86-6.625-23.49-8.097a1507.019 1507.019 0 0 1-15.96-3.179c-1.003 1.372-2.007 2.71-3.01 4.083 25.763 15.592 50.189 34.296 65.58 55.443 28.71 39.315 52.097 65.146 71.103 81.407 11.811 10.105 21.916 16.53 30.582 20.244a158.464 158.464 0 0 0 8.13 3.245c16.965 6.324 38.78 11.443 66.05 11.945a119.731 119.731 0 0 1-7.896-5.019zM380.637 239.807c-.87 1.438-1.74 2.91-2.677 4.383-.736 1.204-1.505 2.476-2.275 3.714a1146.106 1146.106 0 0 1-12.38 19.708c-.569.87-1.138 1.773-1.706 2.677a356.298 356.298 0 0 1-3.882 6.022c-.602.937-1.204 1.874-1.84 2.844l-2.108 3.213a1884.036 1884.036 0 0 0 12.815 41.323 644.268 644.268 0 0 1 16.094 6.29c27.07 10.908 49.956 21.682 50.893 22.987.502.67-1.406-9.068-4.517-23.89-.803-3.815-1.673-7.964-2.61-12.38l-33.66-97.469-.704 1.205a235.515 235.515 0 0 1-3.212 5.52c-.067.067-.1.168-.167.268a368.358 368.358 0 0 1-1.84 3.145 760.228 760.228 0 0 1-6.224 10.44z" fill="#f7c08a"/><path d="M201.895 418.449a542.1 542.1 0 0 1-6.358 3.58c-1.438-2.376-1.873-5.889-.936-10.807 2.61-13.686 8.933-11.243 25.328-17.768-22.016 17.165-18.034 24.995-18.034 24.995z" fill="#a60b47"/><path d="M511.867 449.332l-94.524-91.077-.1-.067-.034-.034c-21.682-10.506-47.915-26.199-47.915-26.199-9.301-4.617-17.8-8.666-24.191-11.71-.034-.034-.067-.034-.1-.034-5.153-2.51-8.9-4.35-10.507-5.32-.686-.41-1.527-.533-2.45-.507l.175-.296c.134-.201.267-.402.401-.57.268-.4.536-.769.803-1.17a1269.862 1269.862 0 0 0 22.452-33.193c.636-.97 1.238-1.907 1.84-2.844a356.298 356.298 0 0 0 3.882-6.022c.568-.904 1.137-1.807 1.706-2.677 3.547-5.621 7.83-12.414 12.38-19.708.77-1.238 1.54-2.51 2.275-3.714.937-1.472 1.807-2.945 2.677-4.383a760.227 760.227 0 0 0 6.224-10.44 368.36 368.36 0 0 0 1.84-3.145c.067-.1.1-.2.167-.268 1.104-1.84 2.175-3.68 3.212-5.52 1.54-2.677 2.911-5.053 4.083-7.161 3.178-5.554 5.052-9 5.42-9.67l-5.688 8.298-4.417 6.492-39.482 58.019-22.987 33.828c-.235.368-.502.77-.77 1.137l-.402.603-13.5 13.02.013-.006a201.322 201.322 0 0 0-3.31 2.946c-13.149 11.978-28.875 29.578-40.92 42.661-16.597 18.035-56.815 41.524-74.583 51.428 3.58 6.023 13.317 4.986 22.385 2.342 10.473-3.078 20.143-8.365 28.742-15.124 24.46-19.306 49.12-47.278 71.336-76.422 1.573-2.041 3.112-4.115 4.651-6.156 1.004-1.372 2.008-2.71 3.012-4.083a1507.021 1507.021 0 0 0 15.96 3.179c7.629 1.472 15.492 4.25 23.489 8.097l.033.034c1.874.87 3.815 1.84 5.722 2.877h.033c50.157 26.902 103.559 91.179 130.025 119.787 6.157 6.658 13.619 11.677 21.682 15.492 4.384 2.074 8.934 3.78 13.518 5.186h.034c30.75 9.369 63.841 5.253 63.841 5.253-34.33-5.52-63.942-18.236-88.133-33.159z" fill="#66172d"/><path d="M221.77 279.457c-5.354-1.908-8.399-2.911-8.399-2.911s-2.777 3.178-7.561 8.632c-16.898 19.106-59.09 66.284-95.395 102.086-33.392 32.925-61.9 41.09-75.418 43.063.335.636.736 1.205 1.138 1.707l23.99 2.844a47.963 47.963 0 0 0 13.117-6.157c53.468-35.267 102.186-88.434 141.97-140.598 19.54 6.457 37.642 14.655 54.974 21.414a147.442 147.442 0 0 1 15.994-2.744c-27.337-13.45-52.03-22.886-64.41-27.336zm66.518 36.571c4.885 1.54 10.306 4.15 16.094 7.663 1.339-1.54 2.71-3.112 4.049-4.718-9.235-1.874-17.031-3.413-24.225-4.283 1.372.468 2.744.903 4.082 1.338zm275.81 182.925c-27.27-.502-49.086-5.621-66.05-11.945a158.464 158.464 0 0 1-8.131-3.245c-8.666-3.715-18.77-10.139-30.582-20.244-19.006-16.261-42.394-42.092-71.102-81.407-15.392-21.147-39.818-39.851-65.582-55.443-1.539 2.04-3.078 4.115-4.65 6.156 40.452 29.813 93.754 89.304 132.5 129.49 7.797 8.13 15.024 15.458 21.415 21.581 8.23 7.897 15.124 13.82 20.176 16.931 33.66 20.712 98.405 8.633 98.405 8.633-9.034-1.975-17.834-5.521-26.4-10.507zm-335.97-228.129c54.07-74.013 88.802-141.703 91.914-147.759.033-.033.033-.067.033-.1.97-6.993.502-8.934-.268-9.202-1.606-.535-5.019 6.425-15.09 24.627-3.982 7.127-8.13 14.187-12.113 21.347 0 0-11.041 19.976-26.533 44.468-9.47 14.957-24.326 36.639-46.409 63.039l-4.116 5.621 9.034 2.81c1.205-1.605 2.376-3.245 3.547-4.851zm165.09-72.608a501.953 501.953 0 0 0 4.35-8.231l-21.515-77.861-.033-.1c-9.001-34.966-15.66-64.645-19.976-84.62-1.539 18.369.368 66.585 32.255 179.746a658.233 658.233 0 0 0 4.92-8.934zm-.435 21.013l33.66 97.469c-9.2-43.13-24.023-109.782-24.76-113.095-.033-.1-.033-.134-.033-.134l-.067.1v.034c-.368.67-2.242 4.116-5.42 9.67a2877.6 2877.6 0 0 1-3.38 5.956z" fill="#997551"/><path d="M286.462 544.174l-.065.294a11.372 11.372 0 0 1-1.318 2.931l-.066.134-.658 1.02c-.133.307-.198.539-.198.693 0 .415.351.647 1.054.689.482 0 .956-.075 1.416-.229h.033c.065 0 .284-.088.659-.264 1.053-.55 2.03-1.327 2.93-2.337l.56-.66.362-.725c1.075-2.062 1.647-4.63 1.712-7.705 0-3.16-.328-5.895-.987-8.198v-.066l-.165-.065a2.228 2.228 0 0 0-.823-.134c-.703 0-1.46.167-2.273.497-.723.326-1.196.6-1.415.82l-.1.101.166.624c.438 2.088.658 4.085.658 5.993 0 2.568-.407 4.61-1.219 6.127l-.263.46zm-9.63-14.622a.55.55 0 0 0-.117-.196c-.835-1.14-1.612-1.712-2.338-1.712-.13 0-.263.023-.395.065-.768.176-1.382.637-1.843 1.382-.067.088-.12.21-.165.363-.484 9.022-.725 17.276-.725 24.762 0 2.963.044 5.721.132 8.266l.198 2.304c.006.063.013.116.02.178-.194.062-.387.121-.58.217a.684.684 0 0 0-.231.2h-.033c-1.295 2.369-2.843 4.457-4.643 6.254-2.415 2.395-4.862 3.591-7.342 3.591-1.208 0-2.46-.307-3.755-.921-1.91-.925-2.864-2.108-2.864-3.559.087-1.186.615-2.392 1.58-3.62l.296-.428c.418-.68 1.175-1.494 2.273-2.438 1.998-1.712 4.247-2.875 6.75-3.49.242-.065.363-.11.363-.134l-.034-.032c1.47-.308 2.728-.461 3.77-.461s1.566-.121 1.566-.363c0-.196-.242-.47-.726-.82-.593-.464-1.603-.823-3.029-1.088-.549-.111-1.307-.163-2.272-.163-1.273 0-2.58.173-3.918.526-2.284.656-4.27 1.614-5.96 2.865-.967.722-1.659 1.304-2.075 1.745l-.263.327c-1.384 1.539-2.338 3.26-2.866 5.172-.219.81-.328 1.69-.328 2.634 0 2.503 1.063 4.676 3.194 6.519l.889.66a13.294 13.294 0 0 0 5.038 2.108 10.15 10.15 0 0 0 2.304.26c2.174 0 4.359-.59 6.553-1.777a19.705 19.705 0 0 0 4.182-3.228 31.422 31.422 0 0 0 3.051-3.565c.165 1.05.333 2.034.506 2.876.307 1.34.482 2.01.526 2.01.417 1.492.912 2.763 1.482 3.819.219.35.57.787 1.054 1.317l.165.163c.153.088.274.13.363.13.151 0 .23-.14.23-.427 0-.177-.023-.415-.067-.722l-.263-1.814c-.242-1.69-.363-4.476-.363-8.362 0-1.097.012-2.195.034-3.293l.131-4.676a286.69 286.69 0 0 1-.13-8.728c0-8.185.251-16.354.756-24.497a2.728 2.728 0 0 1-.082-.2zm31.232 34.015a52.984 52.984 0 0 0-.889 1.944l-.428.987c-.395 1.01-1.13 2.735-2.205 5.17-.944 2.107-1.724 3.734-2.338 4.875l-.363.725a96.317 96.317 0 0 1-1.91 3.49c-.044.042-.176.261-.395.657a.278.278 0 0 1-.033.101.647.647 0 0 1-.098.13c-.046.131-.067.262-.067.396 0 .13.11.196.33.196.943 0 2.392-1.098 4.346-3.29 1.712-1.954 3.38-4.271 5.006-6.95l2.305-3.82c.066-.177.142-.34.23-.494a314.718 314.718 0 0 0 4.972-11.194c.105-.25.213-.527.318-.779l.406-.045.725-.098 1.482-.232.263-.032c5.27-.726 11.064-1.088 17.389-1.088.292 0 .541.01.828.01.402 2.339.805 4.604 1.21 6.708l.693 3.49.56 2.107c1.054 3.735 2.041 6.718 2.963 8.956.483 1.167.745 1.745.79 1.745.638 1.34 1.373 2.428 2.206 3.261.637.637 1.274.954 1.912.954.173-.042.294-.091.362-.147.066-.055.098-.104.098-.147a.319.319 0 0 0-.098-.232l-.496-.558c-.396-.572-.856-1.88-1.383-3.918-.548-2.745-1.153-6.388-1.81-10.934l-.2-1.447-.855-4.415a377.47 377.47 0 0 1-.959-5.324c1.163.042 2.317.086 3.364.155.088 0 .17-.026.248-.082.075-.055.124-.081.147-.081 1.052-.856 1.582-1.647 1.582-2.372 0-.504-.177-1-.53-1.48-.438-.53-.77-.82-1.003-.876-.229-.053-1.653-.125-4.264-.213l-.367-.007a553.07 553.07 0 0 1-2.038-13.756 1142.1 1142.1 0 0 1-3.883-32.303c0-.088-.079-.209-.232-.363-.857-.79-1.613-1.186-2.271-1.186-.594 0-1.138.268-1.63.807-.336.367-.515.624-.623.833-.07.053-.15.077-.218.138a.532.532 0 0 0-.23.264c-4.303 12.6-8.66 24.631-13.072 36.09a491.412 491.412 0 0 1-4.72 11.808l-.384.113a39.81 39.81 0 0 0-1.91.526c-.176.065-.362.12-.56.163-.286.089-.56.187-.824.298l-1.744.591-.922.363c-.176.046-.495.166-.956.362-1.163.484-1.745.749-1.745.791h.033l-.098.066c-1.274.66-2.305 1.274-3.096 1.843-.965.77-1.45 1.297-1.45 1.581 0 .176.187.255.561.232l.526-.033 1.713-.395 1.186-.33c.44-.088.921-.21 1.449-.363l1.975-.395 4.116-.726c.038-.003.102-.012.142-.016-.63 1.471-1.255 2.998-1.887 4.43-.791 1.713-1.208 2.635-1.252 2.765zm24.42-49.136c1.521 13.434 3.067 25.063 4.639 34.88h-.013c-6.39 0-12.394.372-18.014 1.117l-.101.016c4.388-10.816 8.88-22.79 13.488-36.013zM151.66 78.271l.263.408a15.54 15.54 0 0 0 1.844 2.284l.47.44c.33.272.79.623 1.375 1.053l.85.556h.029c.057.039.106.068.145.088.04.02.108.059.206.118.096.058.214.115.351.174l.497.265c.118.04.235.087.351.145.118.06.265.118.44.177v.03c.722.252 1.26.42 1.61.496.097.04.448.118 1.054.235.077.04.332.077.76.116l.147.03c.39.039.673.063.85.073.175.01.673.015 1.493.015.116 0 .234-.01.351-.03l.556-.029.175-.03c.137 0 .254-.01.352-.029 1.327-.194 1.99-.341 1.99-.44 1.464-.388 2.636-.877 3.513-1.462.995-.625 1.493-1.093 1.493-1.406 0-.136-.157-.204-.469-.204-.292 0-.83.078-1.609.233-1.64.333-3.055.498-4.244.498-2.422 0-4.421-.478-6.003-1.434-1.19-.702-1.94-1.287-2.253-1.756l-.38-.41c-.86-.82-1.611-1.767-2.255-2.84-.722-1.152-1.083-2.331-1.083-3.542 0-1.795.879-3.581 2.635-5.357 2.36-2.304 5.551-4.294 9.572-5.972.098-.098.155-.166.175-.205a.193.193 0 0 1 .088-.089c.293-.643.44-1.19.44-1.638 0-.39-.128-.771-.38-1.142-.509-.546-1.202-.848-2.08-.907h-.205l-.145.03c-7.26 3.063-11.945 6.771-14.053 11.124a9.597 9.597 0 0 0-.965 4.244l.03.762c.233 2.068.906 3.844 2.019 5.327zm25.879 5.941a8.881 8.881 0 0 0 3.044 1.64l.645.146c.78.155 1.56.234 2.341.234 1.23 0 2.567-.185 4.011-.556 1.6-.449 2.985-1.024 4.156-1.727.995-.604 1.494-.955 1.494-1.053h-.03c1.268-1.035 2.137-2.137 2.606-3.309.155-.39.234-.732.234-1.024 0-.253-.079-.38-.234-.38-.137 0-.38.164-.732.496a.601.601 0 0 0-.206.176 15.386 15.386 0 0 1-2.898 1.96 15.035 15.035 0 0 1-6.498 1.465c-.996-.018-1.767-.107-2.313-.263l-.85-.205c-.877-.196-1.58-.557-2.107-1.083-.409-.37-.683-.86-.819-1.464a4.96 4.96 0 0 1-.117-1.083c0-.273.03-.761.088-1.464l.234-1.668.35-1.61c.274-1.406.801-2.85 1.582-4.334.624-1.248 1.425-2.301 2.4-3.16 1.23-1.074 2.673-1.61 4.333-1.61.371 0 .858.057 1.464.175l.175.044c.039.01.093.014.162.014.068 0 .258.06.57.175h.059c.02.02.107.05.263.089v.029l-.468.469c-2.07 1.697-5.094 3.444-9.075 5.24a.99.99 0 0 0-.175.205.39.39 0 0 1-.059.087c-.292.665-.44 1.23-.44 1.699 0 .8.41 1.376 1.23 1.727.429.194.81.292 1.141.292.137 0 1.3-.557 3.485-1.668 3.044-1.581 5.308-3.026 6.792-4.333l.848-.82c0-.02.02-.044.058-.073a.554.554 0 0 0 .118-.13c.312-.411.487-.656.526-.733a4.92 4.92 0 0 0 .644-1.464c0-.098.01-.19.03-.28a2.381 2.381 0 0 0 .058-.54c0-1.093-.459-2.029-1.376-2.81l-.321-.206a5.647 5.647 0 0 0-.513-.322.784.784 0 0 1-.16-.086 6.882 6.882 0 0 0-.703-.324l-.088-.028c-.273-.117-.435-.176-.484-.176s-.083-.01-.101-.03l-.673-.174c-.508-.138-.86-.216-1.056-.236a11.037 11.037 0 0 0-1.96-.174c-1.698 0-3.25.341-4.655 1.024-1.737.86-3.22 2.108-4.45 3.746-1.56 2.09-2.673 4.539-3.337 7.35a31.503 31.503 0 0 0-.703 3.834 11.557 11.557 0 0 0-.175 2.02c0 1.502.272 2.82.82 3.951a7.55 7.55 0 0 0 1.815 2.313zm200.695 494.141l.066-1.647v-2.47c0-7.748.548-16.122 1.646-25.124a.509.509 0 0 1-.049-.164.31.31 0 0 0-.081-.163c-.046-.046-.069-.079-.069-.101-.872-1.15-1.718-1.753-2.537-1.863a3.376 3.376 0 0 0-.819-1.395 5.864 5.864 0 0 0-.28-.232.223.223 0 0 0-.115-.033 22.028 22.028 0 0 0-5.565-.823c-2.13 0-4.107.385-5.927 1.153-1.252.55-2.196 1.118-2.833 1.712l-.66.592-.396.395c-.326.396-.646.79-.954 1.186l-.493.559c-1.889 2.856-3.03 5.862-3.424 9.025v1.085c0 .46.042 1.042.13 1.745.2 2.372 1.163 4.391 2.899 6.058.986.925 2.097 1.571 3.326 1.944.46.13.751.21.872.232.121.02.38.075.775.163l.624.066c.242 0 .493.023.758.065h1.088a6.27 6.27 0 0 1 .624-.033l.2-.032c.372-.043.558-.075.558-.098 1.82-.307 3.294-.726 4.411-1.252.223-.102.4-.195.585-.29-.054 1.792-.091 3.566-.091 5.296v2.206l.627 5.76.526 3.327c.046.264.089.506.131.725.046.22.088.435.134.64.042.21.235.99.575 2.34.34 1.35.533 2.013.575 1.993.134.396.275.778.428 1.15l.2.494c.241.703.614 1.45 1.12 2.242l.066.065c.196.33.477.693.84 1.085.362.395.64.604.84.627.195 0 .293-.265.293-.79l-.065-.955c-.043-.372-.098-.823-.163-1.35l-.098-.46a13.086 13.086 0 0 0-.102-.892 7.18 7.18 0 0 1-.065-.987c-.196-1.513-.294-3.842-.294-6.98l.032-2.669c.085-1.03.131-2.072.131-3.127zm-5.588-11.258l-1.888.03c-.154.043-.68.066-1.578.066-2.418 0-4.27-.363-5.565-1.088-1.516-.964-2.274-2.434-2.274-4.411l.13-1.582c.154-1.973.749-3.96 1.781-5.96l.526-.856.298-.395c0-.043.186-.285.559-.722.176-.223.33-.396.46-.53.043-.02.177-.13.396-.327l.065-.035c1.14-.987 2.69-1.48 4.643-1.48 1.31 0 2.555.185 3.754.517-.664 5.855-1.105 11.453-1.307 16.773zm-152.766-15.578c.681 0 1.163.032 1.449.098.505 0 .8.045.889.134l.626.098.658.065c.154 0 .29.01.412.033.12.022.5.088 1.137.196.394.068.91.209 1.547.428.087 0 .147.013.181.036.033.02.082.036.147.049.067.01.128.02.182.032.055.01.093.017.116.017h.032c.659.196 1.22.294 1.68.294.635 0 .954-.22.954-.657 0-.242-.11-.591-.328-1.055h-.033c-.132-.262-.353-.57-.66-.922l-.591-.69a10.385 10.385 0 0 0-1.285-1.153 3.07 3.07 0 0 1-.593-.412 5.903 5.903 0 0 0-.921-.607l-1.088-.53-.494-.163c-.153 0-.286-.023-.395-.065l-.626-.098a1.4 1.4 0 0 0-.428-.085 4.009 4.009 0 0 1-.591-.082h-.1a9.908 9.908 0 0 0-1.12-.065.7.7 0 0 1-.23-.033c-.418 0-.702.01-.856.033h-.692c-.044.022-.187.032-.428.032-1.448.154-2.887.451-4.314.889-1.961.66-3.719 1.555-5.34 2.604a508.558 508.558 0 0 0-1.18-8.201l-.065-.131c-.088-.154-.154-.232-.198-.232-.944-.768-1.756-1.153-2.436-1.153-.263 0-.516.068-.758.199-.702.33-1.251.898-1.647 1.712a1.1 1.1 0 0 0-.065.395c1.163 7.64 2.042 14.27 2.635 19.89l1.12 6.98c.262 1.823.453 3.365.576 4.626.12 1.262.203 1.892.247 1.892l.46 3.657.033.163v.2c.021.11.038.225.05.346.01.12.027.225.048.31a.865.865 0 0 1 .034.2c.087.568.24.856.461.856l.165-.033c.724-.418 1.284-2.261 1.678-5.532.307-2.833.462-5.597.462-8.3 0-1.689-.022-2.983-.067-3.885l-.032-1.316a328.886 328.886 0 0 0-.774-6.863 16.605 16.605 0 0 1 3.54-2.359c2.326-1.228 4.599-1.842 6.816-1.842zM204.15 84.212a8.88 8.88 0 0 0 3.044 1.64l.645.146c.78.155 1.56.234 2.341.234 1.23 0 2.567-.185 4.011-.556 1.6-.449 2.985-1.024 4.156-1.727.995-.604 1.494-.955 1.494-1.053h-.03c1.268-1.035 2.137-2.137 2.606-3.309.155-.39.234-.732.234-1.024 0-.253-.079-.38-.234-.38-.137 0-.38.164-.732.496a.6.6 0 0 0-.206.176 15.389 15.389 0 0 1-2.898 1.96 15.035 15.035 0 0 1-6.498 1.465c-.996-.018-1.767-.106-2.313-.263l-.85-.205c-.877-.196-1.58-.557-2.107-1.083-.409-.37-.683-.86-.819-1.464a4.956 4.956 0 0 1-.117-1.083c0-.273.03-.761.088-1.464l.234-1.668.35-1.61c.274-1.406.801-2.85 1.582-4.334.624-1.248 1.425-2.301 2.4-3.16 1.23-1.074 2.673-1.61 4.333-1.61.371 0 .858.057 1.464.175l.175.044c.04.01.093.014.162.014.068 0 .258.06.57.175h.059c.02.02.107.05.263.089v.029l-.468.469c-2.07 1.697-5.094 3.444-9.075 5.24a.988.988 0 0 0-.175.205.39.39 0 0 1-.059.087c-.292.665-.44 1.23-.44 1.699 0 .8.41 1.376 1.23 1.727.429.194.81.292 1.141.292.137 0 1.3-.557 3.485-1.668 3.044-1.581 5.308-3.026 6.792-4.333l.848-.82c0-.02.02-.044.058-.073a.555.555 0 0 0 .118-.13c.312-.411.487-.656.526-.733.293-.45.508-.938.644-1.464 0-.098.01-.19.03-.28a2.38 2.38 0 0 0 .058-.54c0-1.093-.459-2.029-1.376-2.81l-.321-.206a5.647 5.647 0 0 0-.513-.322.786.786 0 0 1-.16-.086 6.876 6.876 0 0 0-.703-.324l-.088-.028c-.273-.117-.435-.176-.484-.176s-.083-.01-.101-.03l-.673-.174c-.508-.138-.86-.216-1.056-.236a11.036 11.036 0 0 0-1.96-.174c-1.698 0-3.25.341-4.655 1.024-1.737.86-3.22 2.108-4.45 3.746-1.56 2.09-2.673 4.539-3.336 7.35a31.503 31.503 0 0 0-.703 3.834 11.563 11.563 0 0 0-.176 2.02c0 1.502.272 2.82.82 3.951a7.55 7.55 0 0 0 1.815 2.313zm254.692 487.096c.199.373.418.735.66 1.085l.33.493.46.562c.308.373.788.824 1.448 1.35.284.242.637.483 1.052.722.023 0 .036.013.036.036 1.513.876 3.104 1.317 4.774 1.317.922 0 1.787-.088 2.601-.265.899-.196 1.663-.421 2.287-.676.628-.252 1.088-.461 1.386-.624.294-.164.431-.249.408-.249 1.32-.768 2.366-1.535 3.147-2.303.32-.316.532-.574.721-.82.229 1.017.484 1.918.775 2.663l.33.856.2.362c.48.837 1.052 1.637 1.712 2.405.768.88 1.49 1.546 2.173 2.01l.196.098c.833.483 1.572.712 2.206.69h.134c.395-.043.59-.207.59-.494 0-.307-.218-.823-.656-1.546-.66-1.055-1.176-2.241-1.549-3.558a.39.39 0 0 0-.049-.163.516.516 0 0 1-.049-.232l-.166-.592a.698.698 0 0 0-.033-.183.63.63 0 0 1-.033-.163c0-.033-.032-.137-.098-.314l-.098-.229a1.382 1.382 0 0 0-.134-.362c-.173-.438-.366-1.059-.575-1.86a21.702 21.702 0 0 1-.51-2.816 34.358 34.358 0 0 1-.297-4.676c0-1.889.079-3.594.232-5.12.154-1.526.284-2.53.395-3.013v-.065c-.022 0-.049-.03-.085-.085-.032-.053-.068-.082-.114-.082-.967-.657-1.856-1.01-2.666-1.052-.79 0-1.438.12-1.944.363a.105.105 0 0 0-.066.098l-.395 3.293c-.196 1.578-.294 3.36-.294 5.333 0 1.954.108 3.764.327 5.434.102.738.234 1.343.358 1.987-.363.08-.935.257-1.904.614-.065.023-.12.046-.167.065a.276.276 0 0 1-.13.033 39 39 0 0 1-2.405.856c-1.425.395-2.787.595-4.081.595-.857 0-1.592-.111-2.206-.33-1.12-.461-1.921-1-2.405-1.615a2.193 2.193 0 0 0-.265-.297l-.098-.13v-.033l-.493-.624a2.226 2.226 0 0 1-.363-.562c-.045-.085-.088-.17-.13-.245a3.123 3.123 0 0 0-.134-.216.927.927 0 0 1-.082-.147c-.01-.033-.023-.065-.033-.098a.319.319 0 0 1-.016-.085c-.13-.261-.196-.647-.196-1.15 0-.441.14-.945.428-1.516.568-1.14 1.69-2.35 3.359-3.62 2.411-1.824 5.496-3.48 9.25-4.974l.265-.33c.373-.726.559-1.382.559-1.974 0-.856-.415-1.506-1.252-1.944-.503-.242-.93-.363-1.284-.363l-.13.033c-5.732 2.284-10.055 4.928-12.976 7.937-2.085 2.196-3.127 4.5-3.127 6.914 0 1.056.232 2.098.693 3.127l.196.464zm33.59-30.297a.618.618 0 0 1 .115-.081c.055-.033.202-.082.444-.147l.163-.098c.464-.089.837-.2 1.121-.33l.098-.033c.373-.154.66-.307.856-.46l.232-.2.196-.298c.396-.656.595-1.447.595-2.369 0-.526-.088-1.042-.265-1.548-.395-1.03-1-1.745-1.81-2.14-.506-.242-.954-.363-1.35-.363h-.362l-.79 2.173a.29.29 0 0 1-.034.134.276.276 0 0 0-.032.13c-.22.749-.33 1.33-.33 1.745 0 .177.023.33.065.46l.2.596.163.228c.176.288.28.477.314.579.032.098.065.18.098.245.032.065.058.13.081.199.046.219.088.382.134.493l.066.164v.065c.065.288.098.46.098.53 0 .173-.013.274-.033.294l-.033.032zm26.964 16.498c2.438-1.186 4.61-1.777 6.522-1.777.941 0 1.778.153 2.503.46.899.396 1.69 1.098 2.37 2.108a.92.92 0 0 0 .097.196c.2.31.386.66.562 1.055l2.569 6.653a75.276 75.276 0 0 1 1.646 4.905c.22.748.788 2.908 1.713 6.486.065.33.107.484.13.46.987 3.932 2.085 5.895 3.294 5.895.173-.042.261-.14.261-.294 0-.068-.032-.143-.098-.232-.13-.13-.241-.372-.33-.725l-.196-2.764c-.088-2.899-.219-5.29-.395-7.18-.353-3.117-.833-5.97-1.448-8.56l-.362-1.484a68.702 68.702 0 0 0-2.503-6.355 42.357 42.357 0 0 0-.758-1.317c-1.229-1.931-2.778-3.29-4.644-4.081-1.316-.615-2.787-.922-4.41-.922-2.634 0-5.49.755-8.562 2.271-1.773.864-3.59 1.986-5.426 3.226l-.106-1.383c0-.02-.013-.033-.036-.033a.785.785 0 0 1-.196-.098c-.813-.264-1.549-.395-2.205-.395-.353 0-.68.033-.987.098-.902.242-1.54.526-1.912.856-.088.046-.13.098-.13.167l.261 3.258c.353 4.94.562 9.55.627 13.831l-.032 3.062.13.954c.265 2.173.406 3.506.428 4.003.023.493.056.728.098.706.154 1.032.324 1.741.51 2.124.186.385.412.578.677.578a.936.936 0 0 0 .493-.167c.284-.242.493-.47.627-.69.066-.087.125-.176.18-.264.056-.088.105-.176.147-.265.726-1.294 1.284-2.797 1.68-4.509l.496-2.01v-1.976c0-3.532-.111-7.357-.33-11.474.015-.01.054-.006.066-.018a39.219 39.219 0 0 1 6.98-4.379zm-26.735 13.534l.395 2.373c.111.657.232 1.303.363 1.94.265 1.429.405 2.14.428 2.14.242.922.54 1.638.889 2.141.2.353.405.526.627.526.108 0 .275-.091.494-.278s.483-1.006.79-2.453c.22-.899.399-1.834.543-2.8.144-.965.248-1.788.313-2.468l.131-1.055-.823-19.197c-.111-2.503-.186-3.764-.229-3.787a.26.26 0 0 1-.101-.082c-.02-.033-.043-.049-.066-.049-.833-.372-1.581-.562-2.238-.562-1.01 0-1.823.288-2.437.856-.023.046-.043.072-.066.085-.023.01-.033.036-.033.082 0 .33.164 4.137.494 11.426l.526 11.162zM284.172 314.69h.034c7.194.87 14.99 2.409 24.225 4.283-1.338 1.606-2.71 3.178-4.049 4.718-36.438 41.59-60.83 58.588-77.259 66.585a100.288 100.288 0 0 1-7.194 3.178c-22.016 17.165-18.034 24.995-18.034 24.995 19.674-11.243 53.402-31.72 68.224-47.848 12.046-13.083 27.772-30.683 40.922-42.661 1.907-1.74 3.78-3.38 5.554-4.885 7.997-6.558 14.488-10.205 17.901-8.164 1.606.97 5.354 2.81 10.506 5.32.034 0 .067 0 .1.033 6.392 3.045 14.89 7.094 24.192 11.711 0 0 26.233 15.693 47.915 26.2l.033.033.1.067 94.525 91.077c24.191 14.923 53.803 27.638 88.133 33.16-124.671-47.915-168.972-336.574-173.188-366.286a294.595 294.595 0 0 1-4.049 13.652v.033c-2.375 7.595-5.286 15.693-8.766 24.325v.034c-4.484 11.075-9.87 22.987-16.43 35.735a502.064 502.064 0 0 1-4.349 8.231 657.715 657.715 0 0 1-4.919 8.934c-10.472 18.537-23.287 38.646-38.947 60.16a802.32 802.32 0 0 1-12.28 16.362 833.783 833.783 0 0 1-18.47 23.222c-.334.435-.702.903-1.07 1.338-4.55-.97-8.633-1.64-12.18-1.907-6.357-.469-12.815-.234-19.139.468h-.033a147.45 147.45 0 0 0-15.994 2.744c-19.038 4.283-34.33 11.243-37.408 12.715 20.277-8.298 33.895-9.737 51.394-7.562zm44.067-3.313c.268-.368.535-.77.77-1.137l-.034-.034 23.02-33.794 39.483-58.02 4.417-6.49 5.688-8.299.034-.067c.033 0 .033-.033.033-.033 0 .033.033.067.033.1.803 3.647 18.738 84.219 27.37 125.474 3.112 14.823 5.02 24.56 4.518 23.89-.937-1.304-23.824-12.078-50.893-22.986a644.43 644.43 0 0 0-16.094-6.29c-11.31-4.283-22.753-8.265-33.159-11.343-.267.401-.535.77-.803 1.17-.134.168-.267.369-.401.57-1.439-.703-2.911-1.406-4.384-2.108l.402-.603zm122.242 252.158c0-5.254.457-11.276 1.273-17.896.873-.094 1.75-.18 2.677-.18 1.667 0 3.36.143 5.072.427l.856.164.065-.065c.066-.023.098-.056.098-.099.507-.66.856-1.33 1.056-2.009.107-.373.163-.712.163-1.02 0-.594-.098-1.11-.297-1.548-.02-.043-.053-.066-.098-.066l-.987-.2a30.753 30.753 0 0 0-5.434-.492c-.884 0-1.695.094-2.532.154a276.59 276.59 0 0 1 1.643-10c0-.196-.042-.34-.13-.428-.749-1.228-1.517-1.843-2.308-1.843-.833 0-1.568.35-2.205 1.053-.065.065-.13.166-.196.297a319.17 319.17 0 0 0-1.856 11.685c-.219.056-.465.076-.68.137l-1.745.591a2.647 2.647 0 0 0-.428.164 1.445 1.445 0 0 1-.166.068c-.066.02-.128.043-.18.066a.318.318 0 0 0-.114.065l-.497.196-1.317.66-.46.265-1.416.889-.362.326-1.02 1.023c-.134.196-.31.405-.529.624-.13.154-.21.242-.229.265a.34.34 0 0 0-.065.098c-.023.046-.288.395-.79 1.055-.507.857-.782 1.34-.824 1.448-.023 0-.033.013-.033.033a.473.473 0 0 0-.065.199c-.265.568-.396.964-.396 1.183-.023.023-.032.055-.032.101l-.069.395c-.02.131-.033.262-.033.393 0 .549.187.823.562.823.35 0 .997-.372 1.941-1.118l.726-.493a.397.397 0 0 0 .163-.101l1.317-.856c.53-.307 1-.569 1.418-.788l.493-.232.428-.196.066-.068a.267.267 0 0 0 .098-.066.457.457 0 0 1 .134-.065l1.02-.66c.176-.066.33-.15.46-.262l1.12-.526.82-.317c-.714 6.124-1.084 11.517-1.084 16.123l.033.624.032.1c.112 1.974.34 4.072.693 6.288.438 2.395.912 4.228 1.415 5.499l.46 1.055c.243.484.41.791.497.922l.098.13c.043.131.108.242.197.33 0 .024.013.043.032.066a.339.339 0 0 1 .066.098c.199.353.483.725.856 1.12l.33.33c.219.177.385.318.493.429l.758.46.494.164c.065.046.232.065.493.065h.134c.13-.02.196-.085.196-.196 0-.11-.059-.258-.18-.444-.12-.186-.186-.291-.2-.314a1.603 1.603 0 0 1-.048-.13c-.526-.595-1.052-1.866-1.578-3.82a21.533 21.533 0 0 1-.33-1.88l-.098-1.019-.036-.758a62.649 62.649 0 0 1-.098-3.29v-.925l.199-4.28zm-27.53-22.524a.621.621 0 0 1 .115-.081c.056-.033.203-.082.445-.147l.163-.098c.464-.089.836-.2 1.12-.33l.099-.033c.372-.154.66-.307.856-.46l.232-.2.196-.298c.395-.656.595-1.447.595-2.369 0-.526-.089-1.042-.265-1.548-.396-1.03-1-1.745-1.81-2.14-.507-.242-.954-.363-1.35-.363h-.363l-.79 2.173a.29.29 0 0 1-.033.134.276.276 0 0 0-.033.13c-.219.749-.33 1.33-.33 1.745 0 .177.023.33.066.46l.199.596.163.228c.177.288.281.477.314.579a1.9 1.9 0 0 0 .098.245c.033.065.059.13.082.199.046.219.088.382.134.493l.065.164v.065c.065.288.098.46.098.53 0 .173-.013.274-.033.294l-.032.032zm.23 30.032l.395 2.373c.111.657.232 1.303.363 1.94.264 1.429.405 2.14.428 2.14.241.922.539 1.638.888 2.141.2.353.406.526.628.526.108 0 .274-.091.493-.278s.484-1.006.79-2.453c.22-.899.4-1.834.543-2.8.144-.965.249-1.788.314-2.468l.13-1.055-.823-19.197c-.11-2.503-.186-3.764-.228-3.787a.26.26 0 0 1-.102-.082c-.02-.033-.042-.049-.065-.049-.833-.372-1.582-.562-2.238-.562-1.01 0-1.824.288-2.438.856-.023.046-.042.072-.065.085-.023.01-.033.036-.033.082 0 .33.163 4.137.493 11.426l.527 11.162zM122.445 76.66c.332.528.634.958.907 1.29.118.116.186.204.206.263.428.43.858.8 1.287 1.112a7.86 7.86 0 0 0 1.669.848l.117.03c.253.098.43.151.526.161.098.01.25.035.454.074.206.039.366.062.484.072.118.011.234.024.351.044h.556c.235 0 .702-.04 1.405-.116l.235-.03c1.54-.253 3.063-.869 4.567-1.844l1.024-.732v-.03l.908-.731c.566-.528 1.04-1.01 1.42-1.45s.668-.776.863-1.01v-.029l.235-.322h-.03c.413-.57.75-1.089 1.045-1.58.41 3.227.624 6.257.624 9.075 0 3.65-.352 6.781-1.054 9.397-.39 1.56-.85 2.761-1.376 3.601-.04.077-.073.145-.103.204-.03.06-.073.133-.132.22a9.484 9.484 0 0 0-.175.279c-.118.194-.186.307-.206.336s-.086.121-.204.278a8.72 8.72 0 0 0-.337.44c-.01.017-.277.311-.805.877-.098.117-.194.22-.292.307a10.593 10.593 0 0 0-.351.337 9.329 9.329 0 0 1-1.025.878l-.614.499-.294.204c-.839.683-2.02 1.23-3.542 1.639l-.468.088c-.294.039-.44.068-.44.088-.137.02-.262.03-.38.03a.88.88 0 0 0-.263.029h-1.348l-.116-.03-.44-.029-1.17-.176-.264-.058v.028l-.555-.116a2.619 2.619 0 0 0-.484-.147 5.276 5.276 0 0 1-.542-.145c-.897-.255-1.366-.4-1.405-.44-.703-.235-1.2-.351-1.492-.351-.176 0-.265.069-.265.204 0 .177.128.43.381.761.703.88 1.854 1.698 3.455 2.46.76.39 1.443.663 2.05.82l.82.204c.837.196 1.717.294 2.633.294.897 0 1.776-.098 2.635-.294 1.307-.332 2.332-.693 3.073-1.083l1.113-.615a19.188 19.188 0 0 0 3.397-3.073l.438-.528c.468-.585.751-.975.85-1.171.292-.467.478-.78.555-.936.117-.118.282-.43.498-.936 1.737-3.591 2.606-8.374 2.606-14.345 0-1.64-.059-3.279-.177-4.918a99.755 99.755 0 0 0-2.253-14.784c0-.059-.078-.165-.235-.322-.78-.547-1.434-.82-1.96-.82-.293 0-.548.079-.762.234-.586.351-1.006.879-1.26 1.581-.039.079-.048.147-.029.205v.088c.56 2.546.983 4.955 1.34 7.298-.204.184-.355.304-.608.547-1.658 1.66-3.2 2.899-4.625 3.719a8.93 8.93 0 0 1-.966.555l-.527.265c-1.347.565-2.47.848-3.366.848h-.79l-.06-.03c-.312 0-.575-.02-.79-.058-.136 0-.38-.058-.73-.175-.919-.332-1.621-1.245-2.11-2.737-.487-1.493-.732-3.303-.732-5.43 0-1.464.079-2.88.236-4.245a.545.545 0 0 0-.148-.351c-.682-1.015-1.405-1.523-2.166-1.523-.742 0-1.366.361-1.872 1.083-.098.098-.147.185-.147.263a36.351 36.351 0 0 0-.293 4.392c0 1.093.048 2.205.146 3.336.196 2.186.751 4.138 1.67 5.855zm267.84 477.393l-.032-.098c-.748-1.209-1.558-1.813-2.437-1.813h-.098c-.791.088-1.461.464-2.01 1.12a.841.841 0 0 0-.196.298c-.506 3.27-.758 6.43-.758 9.482 0 5.709 1.14 10.064 3.424 13.074 1.294 1.624 2.866 2.722 4.709 3.293h.033c.66.196 1.075.295 1.251.295.13.065.34.1.627.1.373.086 1.02.141 1.941.164.308.023.726.033 1.252.033 3.578 0 6.76-.882 9.551-2.65 2.787-1.768 4.872-4.19 6.254-7.26l.232-.628.13-.493c.089-.131.21-.536.363-1.22.066-.33.144-.695.23-1.1.087-.409.166-.83.231-1.268l.098-.693c.088-.79.134-1.46.134-2.01v-1.084c0-1.693-.11-3.216-.33-4.578l-.033-.33c-.088-.484-.143-.726-.166-.726v.036a23.64 23.64 0 0 0-.987-3.623c-.506-1.206-.902-1.81-1.186-1.81-.33 0-.493.92-.493 2.764-.023.307-.033.637-.033.99v1.745a8.162 8.162 0 0 0-.065.987c0 .065-.014.12-.033.163 0 .31-.013.506-.033.595 0 .153-.013.398-.033.741-.022.34-.068.696-.133 1.069l-.363 2.503c-.196.879-.34 1.47-.428 1.777-.066.2-.098.34-.098.428l-.131.396c-.088.242-.167.49-.232.741-.065.252-.163.5-.294.742l-.595 1.382a12.996 12.996 0 0 1-1.94 3.258c-2.308 2.833-5.533 4.248-9.682 4.248-.945 0-1.582-.033-1.912-.098-.219 0-.405-.01-.559-.033l-.264-.065h-.18c-.033 0-.226-.043-.575-.13l-.066-.033c-1.8-.595-3.084-2.177-3.855-4.745-.569-1.974-.856-4.398-.856-7.277 0-2.545.241-5.332.725-8.362a.763.763 0 0 0-.098-.297zm-301.097-13.04a.684.684 0 0 1 .115-.082c.053-.033.202-.082.444-.147l.165-.098c.46-.089.833-.2 1.119-.33l.1-.033c.372-.154.658-.307.856-.46l.23-.2.198-.298c.395-.656.591-1.447.591-2.369 0-.526-.086-1.042-.263-1.548-.395-1.03-.998-1.745-1.81-2.14-.506-.242-.956-.363-1.351-.363h-.361l-.79 2.173a.311.311 0 0 1-.034.134.277.277 0 0 0-.032.13c-.22.749-.33 1.33-.33 1.745 0 .177.02.33.065.46l.198.596.165.228c.176.288.28.477.313.579.033.098.066.18.098.245.033.065.06.13.082.199.044.219.088.382.132.493l.066.164v.065c.067.288.1.46.1.53 0 .173-.012.274-.033.294l-.033.032zm56.902 16.497c2.435-1.186 4.608-1.777 6.518-1.777.945 0 1.78.153 2.503.46.9.396 1.691 1.098 2.37 2.108.024.065.056.13.1.196.198.31.384.66.56 1.055l2.57 6.653a74.404 74.404 0 0 1 1.644 4.905c.22.748.791 2.908 1.713 6.486.067.33.11.484.132.46.988 3.932 2.085 5.895 3.292 5.895.176-.042.265-.14.265-.294 0-.068-.035-.143-.1-.232-.13-.13-.242-.372-.328-.725l-.198-2.764c-.088-2.899-.22-5.29-.395-7.18-.352-3.117-.835-5.97-1.45-8.56l-.362-1.484a68.706 68.706 0 0 0-2.502-6.355 45.681 45.681 0 0 0-.758-1.317c-1.23-1.931-2.777-3.29-4.643-4.081-1.317-.615-2.787-.922-4.413-.922-2.633 0-5.488.755-8.56 2.271-1.774.864-3.59 1.986-5.427 3.226l-.106-1.383c0-.02-.011-.033-.032-.033-.023 0-.089-.032-.198-.098-.812-.264-1.547-.395-2.206-.395-.35 0-.681.033-.988.098-.9.242-1.538.526-1.91.856-.088.046-.132.098-.132.167l.264 3.258c.35 4.94.56 9.55.626 13.831l-.034 3.062.132.954c.263 2.173.407 3.506.428 4.003.021.493.054.728.1.706.152 1.032.323 1.741.51 2.124.186.385.411.578.674.578a.931.931 0 0 0 .494-.167c.286-.242.495-.47.625-.69.067-.087.128-.176.182-.264.055-.088.104-.176.148-.265.724-1.294 1.285-2.797 1.68-4.509l.493-2.01v-1.976c0-3.532-.11-7.357-.33-11.474.016-.01.055-.006.067-.018a39.17 39.17 0 0 1 6.982-4.379zm-18.738 16.135c.176-.437.264-.823.264-1.153 0-.284-.088-.428-.264-.428-.154 0-.428.186-.822.562a.64.64 0 0 0-.232.196 17.242 17.242 0 0 1-3.26 2.206 16.931 16.931 0 0 1-7.31 1.646c-1.12-.02-1.986-.12-2.6-.297l-.956-.229c-.988-.219-1.777-.627-2.37-1.218-.461-.415-.77-.964-.922-1.647a5.574 5.574 0 0 1-.132-1.22c0-.306.032-.855.098-1.646l.265-1.875.393-1.81c.307-1.582.9-3.206 1.78-4.876.702-1.405 1.602-2.588 2.7-3.555 1.382-1.206 3.006-1.81 4.872-1.81.418 0 .967.065 1.647.196.088.023.153.039.198.049.044.013.104.016.18.016s.292.066.643.2h.065c.023.022.121.055.298.098v.032l-.528.526c-2.327 1.912-5.73 3.876-10.208 5.895-.11.111-.175.186-.198.232a.423.423 0 0 1-.065.098c-.33.745-.493 1.382-.493 1.908 0 .902.46 1.55 1.382 1.944.483.22.911.33 1.284.33.154 0 1.46-.627 3.92-1.878 3.424-1.778 5.97-3.402 7.639-4.872l.954-.922c0-.023.021-.049.065-.082a.686.686 0 0 0 .133-.15c.351-.46.549-.735.593-.823.328-.503.57-1.052.724-1.647 0-.108.011-.212.032-.31a2.836 2.836 0 0 0 .067-.612c0-1.228-.516-2.28-1.549-3.16l-.36-.231a7.02 7.02 0 0 0-.577-.363.773.773 0 0 1-.182-.098 7.462 7.462 0 0 0-.79-.363l-.098-.032c-.308-.131-.489-.196-.545-.196-.053 0-.093-.013-.114-.033l-.758-.2c-.57-.153-.966-.241-1.184-.26-.726-.135-1.461-.2-2.208-.2-1.91 0-3.654.385-5.234 1.153-1.954.968-3.622 2.37-5.006 4.216-1.757 2.349-3.008 5.103-3.755 8.263a35.06 35.06 0 0 0-.789 4.313 13.034 13.034 0 0 0-.197 2.275c0 1.689.307 3.172.921 4.443.484.968 1.163 1.834 2.042 2.601a10.052 10.052 0 0 0 3.425 1.847l.723.163a13.35 13.35 0 0 0 2.636.265c1.382 0 2.885-.21 4.51-.628 1.8-.503 3.36-1.153 4.676-1.94 1.12-.684 1.68-1.079 1.68-1.187h-.033c1.427-1.163 2.404-2.405 2.93-3.722zM6.692 117.081h230.657v-6.692H0V628.51h568.924v-6.692H6.692V117.081zM177.7 564.623c.416-3.229 1.559-6.434 3.424-9.617l.035-.46c-.133-.834-.342-1.48-.626-1.941a3.043 3.043 0 0 1-.198-.298.922.922 0 0 0-.23-.264c-.309-.33-.747-.494-1.319-.494-.504 0-.986.13-1.447.396-.088.045-.188.12-.298.232-2.172 3.904-3.533 7.812-4.082 11.72 0 .131-.023.523-.066 1.17a78.482 78.482 0 0 0-.1 1.663c0 .55.056 1.206.166 1.974 0 .418.076.879.23 1.385l.428 1.713c.263.702.45 1.173.56 1.414l.592 1.22.232.395a.586.586 0 0 1 .082.147c.032.078.081.15.148.215a10.994 10.994 0 0 0 3.72 3.523 9.54 9.54 0 0 0 2.931 1.186c1.12.284 2.262.428 3.425.428 1.844 0 3.643-.297 5.4-.889 1.865-.595 3.622-1.539 5.268-2.833 1.889-1.493 3.227-3.336 4.018-5.532v-.033c.153-.526.251-.977.296-1.349l.034-.065c0-.134.01-.242.033-.33.153-1.121.23-2.154.23-3.095 0-2.307-.307-4.48-.922-6.522l-.33-.889-.493-1.153-.067-.098a6.411 6.411 0 0 0-.28-.559 3.975 3.975 0 0 1-.18-.33 5.951 5.951 0 0 0-.264-.46l-.197-.298a1.698 1.698 0 0 0-.182-.31 1.176 1.176 0 0 1-.114-.15l-.297-.429a14.116 14.116 0 0 0-2.041-2.238c-.395-.33-.637-.516-.725-.559l-1.087-.725h-.065c-.177-.13-.374-.249-.593-.347s-.407-.18-.56-.245c-.352-.176-.823-.343-1.416-.496l-.495-.164-1.02-.163h-.988c-1.975 0-3.556.372-4.74 1.117-.419.265-.627.484-.627.66 0 .197.317.35.955.461l.33.066c.284 0 .553.01.807.032.251.023.554.066.905.131l1.284.167.856.228c1.229.376 2.382.99 3.457 1.847.133.13.275.26.428.395l.56.591c1.032 1.252 1.757 2.559 2.174 3.918l.46 1.582c.088.219.21.712.363 1.48.11.66.17 1.03.181 1.104.01.079.022.177.033.298.01.12.028.258.049.411.065.396.1.876.1 1.448l-.067 1.219-.165 1.549c-.352 1.359-1.173 2.555-2.469 3.587-2.284 1.824-4.862 2.732-7.74 2.732-1.644 0-3.06-.34-4.245-1.02a5.953 5.953 0 0 1-2.043-1.944l-.263-.428c-.044-.042-.11-.15-.197-.327-.507-1.075-.814-2.074-.923-2.996l-.066-.562-.065-.889v-1.415l.098-.888zM562.274 678.35c-.062-.19-.108-.3-.14-.33a5.062 5.062 0 0 0-.285-.686l-.209-.399c-.817-1.398-1.99-2.342-3.512-2.83l-.566-.14h-.094a1.406 1.406 0 0 0-.259-.072c-1.1-.078-1.957-.235-2.568-.47a4.082 4.082 0 0 1-1.438-.896 1.404 1.404 0 0 1-.235-.199 5.831 5.831 0 0 1-.153-.2 2.214 2.214 0 0 0-.177-.212 5.053 5.053 0 0 1-.307-.496c-.14-.252-.229-.432-.261-.543a5.915 5.915 0 0 1-.294-1 5.731 5.731 0 0 1-.105-1.097c0-.83.134-1.647.399-2.451l.189-.493v-.05l.023-.022c.065-.187.183-.37.356-.543.644-.706 1.87-1.059 3.676-1.059 1.32 0 2.764.19 4.336.566.062 0 .121-.013.177-.036s.088-.036.104-.036c.944-.503 1.422-1.075 1.438-1.719 0-.536-.229-1.03-.683-1.487-.062-.091-.134-.14-.212-.14-1.837-.454-3.559-.683-5.16-.683-.99 0-1.862.088-2.617.258a7.448 7.448 0 0 0-2.899 1.274c-.486.36-.895.785-1.225 1.272s-.549.921-.66 1.297a.497.497 0 0 1-.072.163c-.091.239-.14.386-.14.448a6.9 6.9 0 0 0-.258.944c-.095.347-.167.7-.213 1.059l-.072.709v.918c.033.974.167 1.823.402 2.546.611 1.823 1.663 3.26 3.157 4.313.222.157.418.274.591.353a.53.53 0 0 0 .163.104.21.21 0 0 1 .072.036l.353.167c1.114.516 2.261.8 3.441.846l.19.026c.091 0 .18.007.258.023l.212.046c.124.078.226.117.307.117.013 0 .023.01.023.027.062.013.118.039.163.068h.023c.239.128.464.3.686.52 0 .016.007.023.023.023l.236.284.212.33.235.565a.955.955 0 0 0 .095.281c0 .111.016.213.046.307a4.2 4.2 0 0 1-.14 1.885.496.496 0 0 1-.073.164l-.068.239-.262.447c-.078.157-.18.298-.304.422-.457.52-.96.911-1.51 1.18l-.61.235a1.638 1.638 0 0 0-.248.094.14.14 0 0 1-.082.023c-.52.14-1.157.245-1.912.307h-.117a.712.712 0 0 1-.213.036c-.108.007-.241.01-.398.01l-.47-.023c-.756 0-1.504-.258-2.242-.777a4.47 4.47 0 0 1-.896-.99c-.408-.644-.683-1.255-.823-1.837a.725.725 0 0 1-.095-.225c-.016-.069-.033-.105-.046-.105a9.86 9.86 0 0 1-.212-.85 14.876 14.876 0 0 1-.212-1.179c-.174-1.176-.353-1.764-.543-1.764-.127 0-.284.202-.47.61-.33.755-.497 1.775-.497 3.066v.303c0 1.134.235 2.232.709 3.3.565 1.21 1.366 2.138 2.402 2.781l.212.14.425.24c.032 0 .065.01.104.032.04.026.079.04.118.05.04.006.108.042.203.104l.375.143c.55.17 1.069.298 1.556.376h.166c.174.046.5.072.99.072.013-.016.125-.033.33-.049.265 0 .435-.006.507-.023a.77.77 0 0 1 .176-.023c.124 0 .281-.026.47-.072.158 0 .471-.055.942-.163l.118-.049c.173-.03.45-.108.826-.235 1.87-.628 3.3-1.745 4.29-3.346.723-1.226 1.082-2.513 1.082-3.866 0-.8-.101-1.516-.304-2.143l-.026-.14zM108.13 68.843v1.201c0 .605.05 2.03.147 4.274.038 1.054.067 2.147.087 3.278l.176 5.973.293 4.01c.039.175.059.39.059.644.02.156.039.273.058.352.018.076.03.155.03.233.077.546.224.82.438.82.039 0 .088-.02.147-.058.545-.489 1.093-2.235 1.638-5.24.723-3.981 1.22-7.855 1.494-11.623.156-1.911.235-7.718.235-17.417 0-2.42-.03-7.738-.088-15.956l-.206-.351c-.762-.936-1.521-1.405-2.283-1.405-.82 0-1.542.498-2.166 1.493-.059.079-.093.142-.103.191s-.015.093-.015.13c.079 5.348.118 10.648.118 15.898 0 3.864-.02 8.383-.059 13.553zM25.701 563.567a52.984 52.984 0 0 0-.889 1.944l-.428.987c-.395 1.01-1.13 2.735-2.205 5.17-.945 2.107-1.724 3.734-2.338 4.875l-.363.725a96.317 96.317 0 0 1-1.91 3.49c-.044.042-.176.261-.395.657a.278.278 0 0 1-.033.101.647.647 0 0 1-.098.13c-.046.131-.067.262-.067.396 0 .13.11.196.33.196.943 0 2.392-1.098 4.346-3.29 1.712-1.954 3.38-4.271 5.006-6.95l2.305-3.82c.065-.177.142-.34.23-.494a314.718 314.718 0 0 0 4.972-11.194c.105-.25.213-.527.318-.779l.406-.045.725-.098 1.482-.232.263-.032c5.269-.726 11.064-1.088 17.387-1.088.293 0 .543.01.83.01.403 2.339.805 4.604 1.21 6.708l.693 3.49.559 2.107c1.054 3.735 2.042 6.718 2.964 8.956.483 1.167.746 1.745.79 1.745.637 1.34 1.373 2.428 2.206 3.261.637.637 1.273.954 1.91.954.176-.042.297-.091.362-.147.066-.055.1-.104.1-.147a.32.32 0 0 0-.1-.232l-.493-.558c-.395-.572-.856-1.88-1.384-3.918-.549-2.745-1.152-6.388-1.81-10.934l-.198-1.447-.856-4.415c-.324-1.72-.644-3.498-.96-5.324 1.163.042 2.318.086 3.363.155.089 0 .17-.026.247-.082s.126-.081.149-.081c1.054-.856 1.58-1.647 1.58-2.372 0-.504-.175-1-.526-1.48-.44-.53-.775-.82-1.005-.876-.23-.053-1.652-.125-4.264-.213l-.367-.007a549.676 549.676 0 0 1-2.037-13.756 1142.116 1142.116 0 0 1-3.885-32.303c0-.088-.078-.209-.232-.363-.856-.79-1.612-1.186-2.27-1.186-.594 0-1.138.268-1.631.807-.335.367-.514.624-.622.833-.07.053-.151.077-.218.138a.532.532 0 0 0-.23.264c-4.304 12.6-8.661 24.631-13.072 36.09a491.412 491.412 0 0 1-4.72 11.808l-.384.113a39.81 39.81 0 0 0-1.91.526c-.176.065-.363.12-.56.163-.286.089-.56.187-.824.298l-1.745.591-.921.363c-.177.046-.495.166-.956.362-1.163.484-1.745.749-1.745.791h.033l-.098.066c-1.274.66-2.305 1.274-3.096 1.843-.966.77-1.45 1.297-1.45 1.581 0 .176.187.255.561.232l.526-.033 1.712-.395 1.187-.33c.439-.088.92-.21 1.449-.363l1.975-.395 4.115-.726c.038-.003.102-.012.142-.016-.63 1.471-1.254 2.998-1.887 4.43-.79 1.713-1.207 2.635-1.251 2.765zm24.42-49.136c1.521 13.434 3.068 25.063 4.64 34.88h-.016c-6.388 0-12.392.372-18.013 1.117l-.1.016c4.387-10.816 8.88-22.79 13.488-36.013zm519.002 57.632c-.154 0-.428.186-.823.562a.628.628 0 0 0-.232.196 17.33 17.33 0 0 1-3.258 2.206 16.945 16.945 0 0 1-7.313 1.646c-1.117-.02-1.987-.12-2.601-.297l-.954-.229c-.987-.219-1.778-.627-2.372-1.218-.461-.415-.768-.964-.922-1.647a5.57 5.57 0 0 1-.13-1.22c0-.306.032-.855.097-1.646l.265-1.875.396-1.81c.307-1.582.898-3.206 1.777-4.876.703-1.405 1.601-2.588 2.7-3.555 1.385-1.206 3.008-1.81 4.874-1.81.415 0 .964.065 1.647.196.085.023.154.039.196.049a.67.67 0 0 0 .18.016c.078 0 .29.066.644.2h.065c.023.022.12.055.297.098v.032l-.526.526c-2.33 1.912-5.731 3.876-10.208 5.895a1.201 1.201 0 0 0-.199.232.423.423 0 0 1-.065.098c-.33.745-.494 1.382-.494 1.908 0 .902.461 1.55 1.383 1.944.483.22.911.33 1.284.33.153 0 1.46-.627 3.917-1.878 3.425-1.778 5.974-3.402 7.64-4.872l.957-.922c0-.023.02-.049.066-.082a.785.785 0 0 0 .13-.15c.35-.46.55-.735.592-.823a5.48 5.48 0 0 0 .725-1.647c0-.108.01-.212.033-.31.023-.102.04-.2.049-.298.013-.098.016-.202.016-.314 0-1.228-.516-2.28-1.545-3.16l-.363-.231c-.33-.22-.523-.34-.578-.363a.835.835 0 0 1-.18-.098 7.624 7.624 0 0 0-.79-.363l-.099-.032c-.307-.131-.49-.196-.542-.196-.056 0-.095-.013-.118-.033l-.755-.2c-.571-.153-.967-.241-1.186-.26-.725-.135-1.46-.2-2.205-.2-1.912 0-3.657.385-5.238 1.153-1.954.968-3.62 2.37-5.003 4.216-1.758 2.349-3.01 5.103-3.754 8.263a36.071 36.071 0 0 0-.79 4.313c-.132.749-.2 1.507-.2 2.275 0 1.689.307 3.172.924 4.443.48.968 1.164 1.834 2.04 2.601a10.082 10.082 0 0 0 3.424 1.847l.725.163a13.36 13.36 0 0 0 2.634.265c1.385 0 2.888-.21 4.512-.628 1.8-.503 3.36-1.153 4.676-1.94 1.12-.684 1.68-1.079 1.68-1.187h-.033c1.425-1.163 2.402-2.405 2.93-3.722.174-.437.262-.823.262-1.153 0-.284-.088-.428-.261-.428zM73.447 562.91c0 .68.055 2.284.165 4.806.044 1.186.076 2.415.1 3.69l.197 6.717.328 4.51c.045.199.066.437.066.725.023.176.044.307.067.395.021.089.032.177.032.262.087.614.252.924.494.924.044 0 .1-.022.165-.068.614-.55 1.228-2.513 1.844-5.892.812-4.48 1.371-8.835 1.68-13.073.175-2.15.263-8.682.263-19.592 0-2.722-.033-8.705-.1-17.946l-.23-.395c-.856-1.056-1.712-1.582-2.568-1.582-.922 0-1.734.559-2.436 1.68a.607.607 0 0 0-.116.212.74.74 0 0 0-.017.15c.089 6.016.133 11.976.133 17.88 0 4.346-.023 9.427-.067 15.247v1.35zm15.971 8.132l.394 2.373c.111.657.232 1.303.363 1.94.263 1.429.407 2.14.428 2.14.242.922.538 1.638.889 2.141.197.353.407.526.626.526.109 0 .274-.091.495-.278.218-.186.482-1.006.789-2.453.22-.899.4-1.834.544-2.8.142-.965.246-1.788.312-2.468l.132-1.055-.823-19.197c-.11-2.503-.187-3.764-.23-3.787a.248.248 0 0 1-.099-.082c-.023-.033-.044-.049-.067-.049-.835-.372-1.58-.562-2.238-.562-1.01 0-1.823.288-2.438.856a.19.19 0 0 1-.065.085c-.023.01-.033.036-.033.082 0 .33.165 4.137.494 11.426l.527 11.162zm32.667-45.593c-1.63 1.077-2.984 2.447-4.136 3.933a21.317 21.317 0 0 0-2.826 4.832c-.71 1.728-1.26 3.542-1.33 5.528 1.545-1.23 2.799-2.538 3.988-3.868a91.053 91.053 0 0 0 3.327-4.04l3.102-4.066c1.05-1.353 2.058-2.691 3.406-4.139-2.009-.1-3.921.765-5.53 1.82zm348.54 139.3a.19.19 0 0 1-.071-.058c-.017-.023-.03-.036-.046-.036-.598-.265-1.13-.399-1.604-.399-.723 0-1.304.203-1.742.611-.016.033-.033.053-.05.06-.012.009-.022.028-.022.058 0 .235.118 2.964.353 8.179l.379 7.989.28 1.696c.08.47.168.934.262 1.392.187 1.02.291 1.529.304 1.529.173.66.386 1.173.637 1.532.141.252.291.38.448.38.079 0 .196-.07.353-.203.157-.134.346-.719.565-1.755.157-.644.288-1.31.39-2.003.104-.693.176-1.28.225-1.768l.094-.754-.591-13.737c-.079-1.794-.13-2.696-.163-2.712zm-3.264-6.538c.023.069.05.128.072.177.023.045.043.094.059.14.03.157.062.275.095.353l.045.118v.049c.046.202.072.33.072.375 0 .128-.01.197-.026.213l-.023.023c.017-.013.043-.033.082-.059.04-.023.147-.059.32-.105l.118-.072c.33-.062.598-.14.8-.235l.072-.023c.265-.11.47-.219.611-.33l.167-.14.14-.213c.285-.473.425-1.039.425-1.699 0-.375-.062-.745-.19-1.107-.28-.736-.715-1.249-1.296-1.53-.36-.173-.683-.261-.964-.261h-.262l-.565 1.555a.193.193 0 0 1-.023.095.203.203 0 0 0-.023.095c-.157.536-.235.95-.235 1.248 0 .128.016.235.046.33l.143.425.118.167c.124.202.2.34.222.411zm-29.186-12.69c-1.35-2.576-3.267-4.5-5.75-5.775-2.373-1.27-5.248-1.915-8.624-1.93-4.48.015-9.214.98-14.21 2.897l-.095.07c-.078.08-.118.133-.118.166-.297.532-.447.98-.447 1.343 0 .627.32 1.107.967 1.437.376.19.666.281.87.281l.094-.022c.418-.158.816-.27 1.227-.415l-.165 4.538a857.975 857.975 0 0 1-1.203 23.685c-1.129.329-1.722.598-1.722.802 0 .125.229.255.686.39a5 5 0 0 0 .955.15c-.039.602-.067 1.215-.108 1.816-.062.928-.098 1.63-.105 2.108-.01.48-.02 1.088-.036 1.826s-.032 1.51-.046 2.31l-.049 1.157c0 .47-.016 1.069-.045 1.79l-.023.305c0 .19-.01.356-.026.496v3.37c0 .205.026.503.072.895.045.392.14.591.28.591.128 0 .291-.183.497-.542.281-.504.533-1.157.755-1.958l.023-.117.14-.494c.095-.284.141-.473.141-.565a58.88 58.88 0 0 0 1.274-5.918l.52-3.133c.094-1.323.18-2.702.27-4.062.639-.055 1.294-.051 1.92-.157 1.934-.313 3.691-.754 5.28-1.32l.895-.307a42.466 42.466 0 0 0 2.12-1.058l.615-.353.068-.023c.112-.079.216-.144.32-.19.102-.049.184-.095.246-.14 2.294-1.337 4.32-2.82 6.08-4.457.896-.8 1.886-1.83 2.97-3.085l.707-.895.166-.261c.752-1.004 1.356-1.964 1.814-2.876 1.085-1.964 1.728-4.029 1.93-6.195v-.19c.034-.219.05-.526.05-.918l-.05-.99c-.123-1.353-.502-2.712-1.13-4.078zm-2.522 6.975c-.281 1.415-.847 2.866-1.696 4.36-1.085 1.823-2.454 3.522-4.11 5.103a30.902 30.902 0 0 1-5.294 4.065l-.964.588-.967.52c-.47.251-.941.487-1.415.706l-.778.424-.516.258a31.596 31.596 0 0 1-5.587 2.202c.437-7.01.807-14.494 1.107-22.467l.21-5.767c2.876-.749 5.607-1.163 8.158-1.163 1.886 0 3.676.274 5.372.826.99.347 1.892.8 2.709 1.366.99.676 1.745 1.399 2.264 2.17.268.343.425.572.471.683a.85.85 0 0 1 .046.094c.016.03.032.046.049.046l.163.281a6.67 6.67 0 0 1 .66 1.676c.206.739.307 1.438.307 2.095 0 .647-.062 1.29-.19 1.934zm109.065 14.518a3.331 3.331 0 0 0-.471-.66l-.425-.497a7.329 7.329 0 0 0-.918-.823 2.23 2.23 0 0 1-.425-.294 4.178 4.178 0 0 0-.66-.438l-.777-.376-.353-.117a.738.738 0 0 1-.285-.05l-.447-.068a.931.931 0 0 0-.307-.059 4.045 4.045 0 0 1-.422-.059h-.072a6.626 6.626 0 0 0-.8-.049.513.513 0 0 1-.167-.023c-.297 0-.503.007-.611.023h-.497c-.03.017-.134.023-.304.023-1.039.111-2.068.324-3.088.637a16.898 16.898 0 0 0-3.823 1.865 371.9 371.9 0 0 0-.843-5.87l-.049-.095c-.062-.108-.107-.164-.14-.164-.677-.552-1.258-.827-1.745-.827-.186 0-.37.05-.542.144-.5.236-.896.644-1.177 1.226a.723.723 0 0 0-.049.28c.834 5.467 1.464 10.212 1.886 14.234l.803 4.996a77.16 77.16 0 0 1 .412 3.31c.085.905.144 1.356.177 1.356l.33 2.618.023.117v.14c.016.08.026.16.035.25.007.084.02.16.036.221.013.066.023.111.023.144.062.409.173.611.33.611l.118-.023c.52-.3.918-1.617 1.202-3.96.22-2.026.33-4.006.33-5.937 0-1.21-.016-2.137-.049-2.78l-.022-.945a240.443 240.443 0 0 0-.555-4.909c.696-.61 1.52-1.18 2.535-1.688 1.666-.88 3.29-1.32 4.878-1.32.487 0 .833.022 1.036.071.363 0 .575.03.637.092l.448.072.47.049c.111 0 .21.006.294.023l.814.14c.284.046.654.15 1.108.307.062 0 .108.007.13.023a.295.295 0 0 0 .105.036c.05.007.092.016.13.023.04.01.066.013.082.013h.023c.474.14.873.212 1.203.212.457 0 .683-.156.683-.473 0-.174-.079-.425-.236-.752h-.022zm-83.14 5.372l-.353-.827-.05-.068c-.094-.206-.16-.34-.199-.402s-.081-.14-.13-.236a3.978 3.978 0 0 0-.19-.33l-.14-.212a1.21 1.21 0 0 0-.128-.222.68.68 0 0 1-.085-.108l-.212-.307a10.074 10.074 0 0 0-1.46-1.601c-.282-.235-.455-.37-.517-.402l-.778-.516h-.049a2.234 2.234 0 0 0-.424-.249c-.157-.072-.291-.13-.4-.176a5.326 5.326 0 0 0-1.012-.353l-.356-.118-.729-.117h-.709c-1.412 0-2.542.264-3.392.8-.297.19-.447.347-.447.47 0 .141.228.252.683.33l.235.05c.206 0 .398.006.578.023.18.016.396.045.647.094l.918.118.615.163a7.388 7.388 0 0 1 2.473 1.32c.095.095.196.19.307.285l.402.421c.739.896 1.255 1.833 1.556 2.807l.33 1.13c.062.158.147.51.258 1.06l.13.79.023.213c.007.085.02.183.036.294.046.284.069.627.069 1.035l-.046.873-.117 1.108c-.252.973-.84 1.83-1.768 2.568-1.634 1.304-3.48 1.957-5.539 1.957-1.18 0-2.192-.245-3.039-.732a4.228 4.228 0 0 1-1.46-1.388l-.19-.308a1.084 1.084 0 0 1-.14-.235c-.363-.771-.582-1.483-.66-2.143l-.05-.402-.045-.638v-1.012l.069-.638c.3-2.307 1.117-4.6 2.45-6.881l.026-.327c-.094-.598-.245-1.062-.447-1.392a2.39 2.39 0 0 1-.144-.212.667.667 0 0 0-.163-.19c-.223-.235-.536-.353-.945-.353-.36 0-.705.095-1.035.285a.823.823 0 0 0-.213.163c-1.555 2.797-2.529 5.594-2.921 8.391 0 .095-.016.373-.05.837-.028.464-.051.859-.068 1.189 0 .392.04.863.118 1.415 0 .297.056.627.163.99l.307 1.225c.19.503.324.84.402 1.013l.425.873.164.28a.368.368 0 0 1 .058.108.512.512 0 0 0 .105.154 7.887 7.887 0 0 0 2.663 2.52 6.865 6.865 0 0 0 2.098.849 9.974 9.974 0 0 0 2.45.307 12 12 0 0 0 3.866-.637c1.336-.425 2.594-1.101 3.77-2.026 1.353-1.069 2.31-2.389 2.876-3.96v-.023c.111-.38.18-.7.213-.967l.022-.046c0-.095.007-.173.023-.235.111-.804.167-1.543.167-2.216 0-1.65-.222-3.205-.66-4.666l-.235-.637zm61.387 9.496c-.11 0-.307.133-.588.401a.485.485 0 0 0-.166.14 12.219 12.219 0 0 1-2.333 1.58 12.082 12.082 0 0 1-5.232 1.179c-.8-.017-1.421-.085-1.862-.213l-.683-.163c-.706-.157-1.271-.448-1.696-.872-.33-.298-.55-.693-.66-1.18a4.034 4.034 0 0 1-.095-.872c0-.22.023-.612.072-1.177l.19-1.343.28-1.297c.22-1.13.644-2.294 1.275-3.487.5-1.006 1.143-1.855 1.93-2.545.991-.866 2.154-1.297 3.487-1.297.301 0 .693.046 1.18.14.062.017.111.03.14.036.033.01.076.013.131.013s.21.046.46.14h.047c.016.017.085.04.212.073v.023l-.379.375c-1.663 1.37-4.097 2.775-7.303 4.219a.887.887 0 0 0-.144.166.192.192 0 0 1-.045.07c-.236.535-.353.99-.353 1.368 0 .644.33 1.108.99 1.389.343.157.65.235.918.235.111 0 1.045-.448 2.804-1.343 2.45-1.27 4.273-2.434 5.466-3.486l.686-.66c0-.017.013-.036.046-.06a.395.395 0 0 0 .095-.107c.251-.33.392-.526.425-.588.235-.36.408-.755.516-1.18 0-.078.01-.15.026-.222.013-.072.026-.14.033-.212.01-.072.013-.144.013-.222 0-.883-.37-1.634-1.108-2.265l-.258-.163a4.82 4.82 0 0 0-.415-.262.622.622 0 0 1-.128-.068c-.11-.062-.3-.15-.565-.262l-.072-.023c-.219-.094-.35-.14-.389-.14s-.065-.007-.081-.023l-.543-.144c-.408-.108-.692-.17-.85-.186a8.723 8.723 0 0 0-1.577-.144c-1.366 0-2.615.278-3.748.827-1.399.69-2.592 1.696-3.582 3.016-1.258 1.683-2.153 3.653-2.686 5.914a25.513 25.513 0 0 0-.565 3.088 9.302 9.302 0 0 0-.14 1.627c0 1.21.219 2.271.66 3.18.343.692.83 1.313 1.46 1.862a7.106 7.106 0 0 0 2.451 1.32l.516.118c.63.124 1.258.19 1.886.19.99 0 2.068-.151 3.228-.448 1.29-.363 2.405-.827 3.35-1.392.8-.487 1.199-.768 1.199-.847h-.023c1.022-.833 1.722-1.722 2.097-2.663.124-.317.19-.591.19-.826 0-.203-.066-.307-.19-.307zm-24.343-17.132a.188.188 0 0 1-.072-.06c-.016-.022-.03-.035-.046-.035-.598-.265-1.13-.399-1.604-.399-.722 0-1.304.203-1.742.611-.016.033-.032.053-.049.06-.013.009-.022.028-.022.058 0 .235.117 2.964.352 8.179l.38 7.989.28 1.696c.079.47.167.934.262 1.392.186 1.02.29 1.529.304 1.529.173.66.385 1.173.637 1.532.14.252.29.38.448.38.078 0 .196-.07.352-.203.157-.134.347-.719.566-1.755.157-.644.287-1.31.389-2.003.104-.693.176-1.28.225-1.768l.095-.754-.592-13.737c-.078-1.794-.13-2.696-.163-2.712zm-3.205-3.771a2.69 2.69 0 0 0-.213-1.108c-.016-.03-.04-.046-.068-.046l-.71-.14a21.574 21.574 0 0 0-3.888-.356c-.632 0-1.213.067-1.812.11.334-2.288.718-4.66 1.175-7.155 0-.14-.03-.245-.092-.307-.535-.88-1.084-1.32-1.65-1.32-.598 0-1.124.251-1.578.754a.849.849 0 0 0-.144.213 223.891 223.891 0 0 0-1.314 8.36c-.161.04-.342.055-.5.1l-1.247.424a2 2 0 0 0-.308.118.684.684 0 0 1-.117.046 1.878 1.878 0 0 0-.13.049.343.343 0 0 0-.083.046l-.353.143-.944.47-.33.19-1.013.634-.258.235-.732.732c-.095.14-.219.291-.376.448-.094.111-.15.173-.166.19a.498.498 0 0 0-.046.068c-.016.033-.206.284-.565.755-.363.614-.56.957-.589 1.036-.016 0-.026.01-.026.026a.375.375 0 0 0-.045.14c-.19.409-.285.693-.285.85a.101.101 0 0 0-.023.069c-.016.094-.029.19-.045.284a1.628 1.628 0 0 0-.023.281c0 .395.13.591.398.591.252 0 .716-.268 1.393-.803l.516-.353a.295.295 0 0 0 .117-.069l.945-.614c.375-.22.715-.409 1.013-.566l.353-.166.307-.14.045-.046a.274.274 0 0 0 .072-.05.313.313 0 0 1 .095-.045l.729-.47c.127-.05.238-.112.33-.19l.804-.376.595-.232c-.508 4.372-.785 8.252-.785 11.541l.023.448.023.072c.078 1.414.245 2.914.497 4.502.313 1.712.65 3.023 1.012 3.934l.33.755c.174.347.291.565.353.66l.072.095c.03.092.079.173.14.235 0 .017.007.03.024.046a.27.27 0 0 1 .049.072c.14.252.343.516.61.8l.236.236c.157.127.274.228.353.307l.542.33.356.118c.046.032.164.045.353.045h.095c.092-.013.14-.062.14-.14 0-.079-.042-.183-.13-.317-.085-.134-.134-.21-.14-.226a.596.596 0 0 1-.037-.094c-.375-.425-.754-1.334-1.13-2.732a15.47 15.47 0 0 1-.235-1.343l-.072-.732-.023-.542a42.617 42.617 0 0 1-.072-2.356v-.66l.144-3.065c0-3.76.327-8.069.91-12.808a17.67 17.67 0 0 1 1.916-.129c1.193 0 2.405.102 3.63.308l.611.117.05-.049c.045-.013.068-.039.068-.068.363-.474.614-.951.755-1.438.078-.268.118-.51.118-.732zm.235-1.32c.016-.013.042-.033.081-.059.04-.023.148-.059.32-.105l.118-.072c.33-.062.598-.14.8-.235l.073-.023c.264-.11.47-.219.61-.33l.167-.14.14-.213c.285-.473.426-1.039.426-1.699 0-.375-.062-.745-.19-1.107-.28-.736-.715-1.249-1.297-1.53-.36-.173-.683-.261-.964-.261h-.261l-.566 1.555a.194.194 0 0 1-.022.095.202.202 0 0 0-.023.095c-.157.536-.236.95-.236 1.248 0 .128.017.235.046.33l.144.425.118.167c.124.202.199.34.222.411.023.069.049.128.072.177.022.045.042.094.058.14.03.157.063.275.095.353l.046.118v.049c.046.202.072.33.072.375 0 .128-.01.197-.026.213l-.023.023zM187.397 52.106a91.008 91.008 0 0 0 3.327-4.04l3.101-4.065c1.05-1.354 2.058-2.691 3.407-4.14-2.01-.099-3.922.766-5.531 1.82-1.63 1.078-2.984 2.448-4.136 3.934a21.315 21.315 0 0 0-2.827 4.832c-.71 1.728-1.259 3.541-1.33 5.528 1.546-1.23 2.8-2.539 3.989-3.869z" fill="#a60b47"/></svg>